<svg width="168" height="69" viewBox="0 0 168 69" fill="none" xmlns="http://www.w3.org/2000/svg">
<path d="M4.34 8.8V19H1.54V8.8H0V6.56H1.48C1.16 5.98 0.92 5.32 0.92 4.52C0.92 2.36 2.66 1.08 5.56 1.08C10.02 1.08 13.44 3.48 15.44 6.7H12.7C11.22 4.76 8.88 3.32 6.22 3.32C4.56 3.32 3.72 4.02 3.72 5.16C3.72 5.68 3.9 6.14 4.16 6.56H6.18V8.8H4.34ZM14.0789 20.4C13.6589 19.54 13.3189 18.62 13.0589 17.84C12.7589 17.88 12.4189 17.9 12.0189 17.9C9.35891 17.9 6.63891 16.68 6.63891 13.74C6.63891 11.2 8.35891 9.96 11.8589 9.96H12.6589V8.8H5.87891V6.56H17.3789V8.8H15.4189V12.1H12.3189C10.3389 12.1 9.41891 12.66 9.41891 13.86C9.41891 15.02 10.3989 15.64 11.9789 15.64C12.1189 15.64 12.2589 15.62 12.4189 15.62C12.3789 15.46 12.3789 15.32 12.3789 15.18C12.3789 14.12 13.0789 13.56 14.1789 13.56C15.4989 13.56 16.3389 14.42 16.3389 15.46C16.3389 16.18 15.9589 16.72 15.2389 17.1C15.5789 17.82 15.9789 18.62 16.5189 19.48L14.0789 20.4ZM17.1094 8.8V6.56H28.1494V8.8H17.1094ZM22.3094 19.46C19.5094 18.14 17.8094 16.42 17.8094 14.06C17.8094 11.66 19.3894 10.48 21.6294 10.48C22.7894 10.48 23.6894 10.84 24.4494 11.46C25.1894 10.84 26.1694 10.52 27.3494 10.52C27.8494 10.52 28.4494 10.6 28.7694 10.68V12.82C28.3294 12.72 28.0094 12.7 27.6094 12.7C26.4294 12.7 25.7294 13.54 25.4494 15.5L22.7894 14.88C22.8694 14.2 23.0294 13.6 23.2494 13.08C22.9294 12.88 22.5494 12.74 22.1094 12.74C21.1494 12.74 20.6094 13.34 20.6094 14.24C20.6094 15.4 21.4694 16.26 23.7894 17.42L22.3094 19.46ZM26.8555 8.8V6.56H41.8955V8.8H40.0555V19H37.2755V12.7H37.2555C36.1555 12.7 35.4555 13.54 35.1955 15.5L32.5355 14.88C32.6155 14.2 32.7755 13.6 32.9955 13.08C32.6755 12.88 32.2955 12.74 31.8555 12.74C30.8955 12.74 30.3555 13.34 30.3555 14.24C30.3555 15.4 31.2155 16.26 33.5355 17.42L32.0555 19.46C29.2555 18.14 27.5555 16.42 27.5555 14.06C27.5555 11.66 29.1355 10.48 31.3755 10.48C32.5355 10.48 33.4355 10.84 34.1955 11.46C34.9355 10.84 35.9155 10.52 37.0955 10.52C37.1555 10.52 37.2155 10.52 37.2755 10.52V8.8H26.8555ZM45.9611 8.8V19H43.1611V8.8H41.6211V6.56H43.1411C42.6411 4.44 41.8611 3.32 40.6411 3.32C39.7011 3.32 39.2611 3.88 39.2611 4.78C39.2611 5.44 39.5011 6.1 39.8011 6.7H37.0811C36.7011 5.9 36.4811 5.08 36.4811 4.32C36.4811 2.36 37.8411 1.08 40.1811 1.08C43.5011 1.08 44.9211 3.32 45.7011 6.56H47.8011V8.8H45.9611ZM69.3609 8.8H62.8409V11.6C63.4209 11.22 64.1009 11 65.0009 11C67.0809 11 68.4009 12.3 68.4009 14.44C68.4009 15.74 67.9609 17 66.8409 18.42L64.4209 17.08C65.1409 16.24 65.6209 15.42 65.6209 14.48C65.6209 13.64 65.2009 13.22 64.4809 13.22C63.8209 13.22 63.1809 13.64 62.8409 14.2V19H60.0409V16.46C59.2809 16.94 58.3409 17.18 57.3209 17.18C54.8609 17.18 53.1609 15.9 53.1609 13.56C53.1609 11.3 54.7409 10.02 57.4809 10.02C58.1609 10.02 58.8409 10.08 59.4409 10.2L59.2009 12.42C58.8009 12.32 58.3209 12.26 57.8209 12.26C56.6209 12.26 55.9609 12.76 55.9609 13.64C55.9609 14.5 56.6009 14.94 57.5409 14.94C58.5809 14.94 59.5009 14.34 60.0409 13.64V8.8H52.4609V6.56H69.3609V8.8ZM73.4025 8.8V19H70.6025V8.8H69.0625V6.56H70.7025C69.6425 5.62 69.1425 5.44 68.3025 5.44C67.6825 5.44 67.0425 5.6 66.4625 5.84L65.8025 4.1C66.4425 3.8 67.1825 3.62 67.9025 3.62C69.0225 3.62 69.6225 3.94 70.9425 5.24L71.0225 5.18C69.9225 3.32 69.3225 2.88 68.1825 2.88C67.7025 2.88 67.1825 2.98 66.7225 3.16L66.1425 1.38C66.6825 1.2 67.4225 1.08 68.1225 1.08C70.7625 1.08 71.5225 2.34 73.0025 6.56H75.2425V8.8H73.4025ZM77.8214 16.1C76.4014 16.08 75.4014 15.4 75.4014 14.16C75.4014 13.18 76.1214 12.58 77.1414 12.58C77.8814 12.58 78.4414 12.84 79.0414 13.38C80.4414 12.84 81.2214 11.66 81.2214 10.2C81.2214 9.06 80.7414 8.4 79.8414 8.4C79.2214 8.4 78.8614 8.76 78.8614 9.24C78.8614 9.88 79.4414 10.2 80.4214 10.32L79.6614 11.96C77.4014 11.74 76.3014 10.7 76.3014 9.14C76.3014 7.5 77.5014 6.36 79.7414 6.36C82.4614 6.36 83.9414 8.04 83.9414 10.4C83.9414 12.52 82.8414 14.1 80.8214 15.16C81.7214 16 82.5414 16.94 83.3014 17.92L80.9814 19.38C80.1214 18.1 79.2614 16.98 78.4814 16.06C78.2614 16.08 78.0414 16.1 77.8214 16.1ZM88.5614 8.8V19H85.7814V8.8H84.4014V6.56H90.4014V8.8H88.5614ZM90.1172 8.8V6.56H105.157V8.8H103.317V19H100.537V12.7H100.517C99.4172 12.7 98.7172 13.54 98.4572 15.5L95.7972 14.88C95.8772 14.2 96.0372 13.6 96.2572 13.08C95.9372 12.88 95.5572 12.74 95.1172 12.74C94.1572 12.74 93.6172 13.34 93.6172 14.24C93.6172 15.4 94.4772 16.26 96.7972 17.42L95.3172 19.46C92.5172 18.14 90.8172 16.42 90.8172 14.06C90.8172 11.66 92.3972 10.48 94.6372 10.48C95.7972 10.48 96.6972 10.84 97.4572 11.46C98.1972 10.84 99.1772 10.52 100.357 10.52C100.417 10.52 100.477 10.52 100.537 10.52V8.8H90.1172ZM122.284 8.8H120.644V11.44C120.644 13.54 119.804 14.5 117.644 14.98L116.364 12.82C117.544 12.52 117.864 12 117.864 10.88V8.8H114.004V12.32C114.004 13.7 114.244 14.18 115.644 14.88L117.964 15.96C120.024 16.94 120.564 17.74 120.564 19C120.564 19.74 120.284 20.44 119.724 21.2L117.064 20.22C117.384 19.82 117.524 19.44 117.524 19.08C117.524 18.44 117.224 18.12 116.024 17.54L114.104 16.66C111.964 15.68 111.224 14.84 111.224 12.58V8.8H109.844V6.56H122.284V8.8ZM134.352 8.8H132.512V19H129.732V16.58C129.012 16.98 128.112 17.22 127.052 17.22C124.412 17.22 122.692 15.92 122.692 13.56C122.692 11.26 124.332 10.02 127.012 10.02C127.832 10.02 128.532 10.1 129.112 10.24L128.892 12.42C128.452 12.32 127.972 12.26 127.412 12.26C126.212 12.26 125.492 12.76 125.492 13.64C125.492 14.46 126.132 14.96 127.212 14.96C128.212 14.96 129.172 14.48 129.732 13.72V8.8H121.992V6.56H134.352V8.8ZM129.562 3.6C129.562 2.72 130.222 2.04 131.123 2.04C132.002 2.04 132.662 2.72 132.662 3.6C132.662 4.5 132.002 5.18 131.123 5.18C130.222 5.18 129.562 4.5 129.562 3.6ZM0 30.56H12V32.8H10C10.28 33.2 10.42 33.7 10.42 34.28C10.42 35.14 10.06 35.88 9.4 36.44C10.52 37.46 10.96 38.44 10.96 39.6C10.96 41.72 9.34 43 6.94 43C4.1 43 2.16 41.58 0.52 36.92L2.76 35.9C3.9 39.22 4.96 40.7 6.54 40.7C7.52 40.7 8.14 40.16 8.14 39.24C8.14 38.54 7.86 37.94 7.28 37.42C6.7 37.56 6.06 37.66 5.34 37.7L4.94 35.54C6.84 35.4 7.62 35.04 7.62 34.04C7.62 33.56 7.42 33.14 7.04 32.8H0V30.56ZM17.4992 43.02C15.1792 43.02 13.1192 42.26 13.1192 40.08C13.1192 39.46 13.3192 38.96 13.6592 38.54C12.8992 38.06 12.3992 37.22 12.3992 36.26C12.3992 34.5 13.8392 33.96 15.7792 33.96H16.9392V32.8H11.6792V30.56H26.1192V32.8H24.2792V43.1H21.4992V41.82C20.5592 42.54 19.1392 43.02 17.4992 43.02ZM17.4592 40.78C18.8392 40.78 20.4192 40.26 21.4992 39.18V32.8H19.3992V35.88H16.1592C15.3992 35.88 14.9592 36.02 14.9592 36.56C14.9592 36.88 15.1392 37.18 15.4392 37.42C16.0592 37.22 16.7592 37.14 17.4592 37.14H19.1992V39.1H17.5792C16.2592 39.1 15.7392 39.38 15.7392 39.9C15.7392 40.56 16.4192 40.78 17.4592 40.78ZM30.1798 32.8V43H27.3798V32.8H25.8398V30.56H27.2998C26.9998 30 26.7598 29.38 26.7598 28.56C26.7598 26.36 28.5998 25.08 31.7398 25.08C36.4398 25.08 40.2198 27.62 42.3598 30.7H39.5198C37.5398 28.56 35.0998 27.34 32.2998 27.34C30.4798 27.34 29.5598 28.02 29.5598 29.18C29.5598 29.74 29.7598 30.18 29.9998 30.56H32.0198V32.8H30.1798ZM43.1988 32.8V43H40.4188V38.68H36.7588V38.98C36.7588 40.1 36.2188 40.58 35.3588 40.58C34.0188 40.58 32.3588 38.82 32.3588 37.58C32.3588 36.98 32.6588 36.44 33.8588 36.44H33.9588V32.8H31.7188V30.56H45.0388V32.8H43.1988ZM40.4188 32.8H36.7588V36.44H40.4188V32.8ZM55.6256 32.8V43H52.8256V37.18H50.2856C48.9656 37.18 48.2656 37.66 48.2656 38.7C48.2656 39.7 48.9856 40.6 50.3456 41.86L48.2856 43.46C46.5056 41.72 45.4656 40.24 45.4656 38.38C45.4656 36.04 47.0456 34.94 49.9056 34.94H52.8256V32.8H44.7656V30.56H57.4656V32.8H55.6256ZM61.508 32.8V43H58.708V32.8H57.168V30.56H63.348V32.8H61.508ZM72.3478 32.8V43H69.5478V32.8H68.0078V30.56H69.4678C69.1678 30 68.9278 29.38 68.9278 28.58C68.9278 26.38 70.7478 25.08 73.8078 25.08C78.4278 25.08 82.1078 27.62 84.2078 30.7H81.4278C79.4478 28.58 77.1478 27.34 74.4078 27.34C72.6278 27.34 71.7278 28.02 71.7278 29.18C71.7278 29.74 71.9278 30.18 72.1678 30.56H74.1878V32.8H72.3478ZM86.2467 32.8H84.4067V43H81.6267V40.58C80.9067 40.98 80.0067 41.22 78.9467 41.22C76.3067 41.22 74.5867 39.92 74.5867 37.56C74.5867 35.26 76.2267 34.02 78.9067 34.02C79.7267 34.02 80.4267 34.1 81.0067 34.24L80.7867 36.42C80.3467 36.32 79.8667 36.26 79.3067 36.26C78.1067 36.26 77.3867 36.76 77.3867 37.64C77.3867 38.46 78.0267 38.96 79.1067 38.96C80.1067 38.96 81.0667 38.48 81.6267 37.72V32.8H73.8867V30.56H86.2467V32.8ZM97.117 32.8H95.897V30.56H101.757V32.8H99.897V43.52H97.117V42.26C96.417 42.7 95.537 42.9 94.597 42.9C92.697 42.92 91.197 41.9 91.197 40.08C91.197 38.78 91.937 37.94 93.117 37.48C92.637 37.32 92.217 37.14 91.817 36.96C90.437 37.62 88.937 38.22 87.357 38.8L86.377 36.72C87.357 36.38 88.337 36.06 89.277 35.7C88.177 34.96 87.717 34.08 87.717 33.08C87.717 31.6 89.057 30.36 91.517 30.36C94.017 30.36 95.357 31.42 95.357 33.2C95.357 34.16 94.917 35.02 93.837 35.76C94.797 36 95.957 36.18 97.117 36.2V32.8ZM90.397 33.36C90.397 33.96 90.777 34.42 91.497 34.86C92.277 34.4 92.677 33.9 92.677 33.32C92.677 32.76 92.337 32.36 91.557 32.36C90.877 32.36 90.397 32.7 90.397 33.36ZM93.717 39.9C93.717 40.56 94.237 40.88 94.897 40.88C95.837 40.88 96.577 40.5 97.117 39.78V38.6C96.597 38.56 96.217 38.54 95.877 38.56C94.937 38.58 93.717 38.82 93.717 39.9ZM105.805 32.8V43H103.005V32.8H101.465V30.56H102.925C102.625 30 102.385 29.38 102.385 28.58C102.385 26.38 104.205 25.08 107.265 25.08C111.885 25.08 115.565 27.62 117.665 30.7H114.885C112.905 28.58 110.605 27.34 107.865 27.34C106.085 27.34 105.185 28.02 105.185 29.18C105.185 29.74 105.385 30.18 105.625 30.56H107.645V32.8H105.805ZM119.704 32.8H117.864V43H115.084V40.58C114.364 40.98 113.464 41.22 112.404 41.22C109.764 41.22 108.044 39.92 108.044 37.56C108.044 35.26 109.684 34.02 112.364 34.02C113.184 34.02 113.884 34.1 114.464 34.24L114.244 36.42C113.804 36.32 113.324 36.26 112.764 36.26C111.564 36.26 110.844 36.76 110.844 37.64C110.844 38.46 111.484 38.96 112.564 38.96C113.564 38.96 114.524 38.48 115.084 37.72V32.8H107.344V30.56H119.704V32.8ZM125.214 43.02C122.894 43.02 120.834 42.26 120.834 40.08C120.834 39.46 121.034 38.96 121.374 38.54C120.614 38.06 120.114 37.22 120.114 36.26C120.114 34.5 121.554 33.96 123.494 33.96H124.654V32.8H119.394V30.56H133.834V32.8H131.994V43.1H129.214V41.82C128.274 42.54 126.854 43.02 125.214 43.02ZM125.174 40.78C126.554 40.78 128.134 40.26 129.214 39.18V32.8H127.114V35.88H123.874C123.114 35.88 122.674 36.02 122.674 36.56C122.674 36.88 122.854 37.18 123.154 37.42C123.774 37.22 124.474 37.14 125.174 37.14H126.914V39.1H125.294C123.974 39.1 123.454 39.38 123.454 39.9C123.454 40.56 124.134 40.78 125.174 40.78ZM137.895 32.8V43H135.095V32.8H133.555V30.56H139.735V32.8H137.895ZM139.434 32.8V30.56H154.474V32.8H152.634V43H149.854V36.7H149.834C148.734 36.7 148.034 37.54 147.774 39.5L145.114 38.88C145.194 38.2 145.354 37.6 145.574 37.08C145.254 36.88 144.874 36.74 144.434 36.74C143.474 36.74 142.934 37.34 142.934 38.24C142.934 39.4 143.794 40.26 146.114 41.42L144.634 43.46C141.834 42.14 140.134 40.42 140.134 38.06C140.134 35.66 141.714 34.48 143.954 34.48C145.114 34.48 146.014 34.84 146.774 35.46C147.514 34.84 148.494 34.52 149.674 34.52C149.734 34.52 149.794 34.52 149.854 34.52V32.8H139.434ZM167.199 30.56V32.8H165.339V43H162.559V40.16C161.819 40.58 160.959 40.82 159.879 40.82C156.979 40.82 155.259 39.14 154.619 35.82C156.519 35.5 157.339 34.98 157.339 34.08C157.339 33.58 157.139 33.16 156.779 32.8H154.199V30.56H167.199ZM157.779 37.14C158.119 38.06 158.779 38.58 159.899 38.58C160.959 38.58 161.859 38.08 162.559 37.36V32.8H159.579C159.939 33.34 160.119 33.9 160.119 34.5C160.119 35.86 159.319 36.62 157.779 37.14Z" fill="#0072BC"/>
<path d="M4.901 65.454L4.147 66.156C2.782 64.921 1.82 63.92 1.144 62.958C0.715 62.347 0.546 61.931 0.546 61.541C0.546 61.138 0.793 60.878 1.235 60.878C1.612 60.878 1.963 61.099 2.301 61.489C3.016 61.151 3.328 60.618 3.328 59.916C3.328 59.526 3.237 59.097 3.107 58.837H0V57.914H5.512V58.837H4.186C4.316 59.201 4.368 59.578 4.368 60.046C4.368 61.45 3.471 62.204 2.132 62.776C2.847 63.621 3.874 64.583 4.901 65.454ZM7.52934 58.837V66H6.47634V58.837H5.31934V57.914H8.86834V58.837H7.52934ZM12.7916 66C11.0886 66 9.74959 65.376 9.74959 63.725C9.74959 63.114 10.0226 62.633 10.5426 62.282C10.0876 61.879 9.77559 61.359 9.77559 60.54V58.837H8.68359V57.914H16.4706V58.837H15.1186V61.658L14.2736 62.464H13.5716C12.5316 62.464 11.9206 62.542 11.4396 62.776C11.0236 62.971 10.7896 63.309 10.7896 63.777C10.7896 64.765 11.7126 65.025 12.7526 65.025C13.6496 65.025 14.4166 64.726 14.9886 64.388L15.3916 65.233C14.7286 65.701 13.7146 66 12.7916 66ZM14.0656 61.372V58.837H11.5306L14.0656 61.372ZM10.8156 60.306C10.8156 61.125 10.9976 61.554 11.4656 61.853C11.9466 61.71 12.5316 61.632 13.1816 61.619L10.8156 59.227V60.306ZM9.99355 67.976L12.4765 65.922H12.9965L15.3885 67.976L14.6215 68.691L12.7105 66.897L10.7605 68.691L9.99355 67.976ZM18.4854 58.837V66H17.4324V58.837H16.2754V57.914H17.4064C17.0164 56.133 16.4184 55.275 15.5344 55.275C14.7934 55.275 14.4684 55.717 14.4684 56.432C14.4684 56.939 14.6504 57.446 14.9104 58.005H13.8704C13.5714 57.394 13.4154 56.783 13.4154 56.237C13.4154 55.132 14.1304 54.352 15.3654 54.352C17.1204 54.352 17.8874 55.613 18.3814 57.914H19.8244V58.837H18.4854ZM27.3616 57.914V58.837H26.0226V66H24.9696V63.751C24.5146 64.063 23.9556 64.284 23.1496 64.284C21.4726 64.284 20.5236 63.322 20.0686 61.346C21.4076 61.099 21.9536 60.735 21.9536 60.033C21.9536 59.578 21.7326 59.162 21.3816 58.837H19.6396V57.914H27.3616ZM21.3686 62.009C21.6806 62.906 22.1746 63.361 23.1366 63.361C23.9426 63.361 24.5276 62.945 24.9696 62.464V58.837H22.5126C22.8376 59.253 22.9936 59.708 22.9936 60.15C22.9936 61.073 22.4866 61.645 21.3686 62.009ZM35.5221 65.454L34.7681 66.156C33.4031 64.921 32.4411 63.92 31.7651 62.958C31.3361 62.347 31.1671 61.931 31.1671 61.541C31.1671 61.138 31.4141 60.878 31.8561 60.878C32.2331 60.878 32.5841 61.099 32.9221 61.489C33.6371 61.151 33.9491 60.618 33.9491 59.916C33.9491 59.526 33.8581 59.097 33.7281 58.837H30.6211V57.914H36.1331V58.837H34.8071C34.9371 59.201 34.9891 59.578 34.9891 60.046C34.9891 61.45 34.0921 62.204 32.7531 62.776C33.4681 63.621 34.4951 64.583 35.5221 65.454ZM38.1504 58.837V66H37.0974V58.837H35.9404V57.914H39.4894V58.837H38.1504ZM47.7937 58.837V66H46.7407V61.19H44.9597C44.6087 61.19 44.3747 61.177 44.2187 61.151C44.8427 61.658 45.2587 62.399 45.2587 63.166C45.2587 64.375 44.3747 64.96 43.3347 64.96C41.9567 64.96 40.7997 63.881 39.7077 60.787L40.6307 60.462C41.4237 62.789 42.2687 64.011 43.2827 64.011C43.8417 64.011 44.2317 63.738 44.2317 63.049C44.2317 62.282 43.6337 61.593 42.8537 61.099L43.2307 60.267H46.7407V58.837H39.3047V57.914H49.1327V58.837H47.7937ZM57.1301 58.837H55.7911V66H54.7381V64.128C54.2961 64.453 53.6461 64.674 52.8011 64.674C51.2411 64.674 50.2271 63.881 50.2271 62.711C50.2271 62.269 50.3831 61.814 50.7861 61.476C50.0971 61.047 49.6031 60.423 49.6031 59.552C49.6031 58.447 50.3441 57.784 51.5401 57.784C52.7101 57.784 53.2301 58.434 53.2301 59.227C53.2301 59.682 53.0481 60.072 52.6581 60.436L51.8781 59.968C52.1121 59.734 52.2291 59.487 52.2291 59.24C52.2291 58.85 51.9951 58.616 51.5401 58.616C50.9811 58.616 50.6171 59.006 50.6171 59.63C50.6171 60.241 50.9681 60.683 51.6181 61.008C51.9171 60.917 52.2551 60.891 52.6061 60.891C52.8531 60.891 53.1131 60.917 53.3081 60.956L53.2041 61.866C53.0351 61.84 52.8661 61.827 52.6321 61.827C51.7351 61.827 51.2671 62.152 51.2671 62.763C51.2671 63.426 51.9041 63.764 52.7881 63.764C53.5941 63.764 54.2831 63.413 54.7381 62.867V58.837H53.9321V57.914H57.1301V58.837ZM59.1612 58.837V66H58.1082V58.837H56.9512V57.914H60.5002V58.837H59.1612ZM60.3154 57.914H67.7124V58.837H66.3734V66H65.3204V62.126H62.9674V62.828C62.9674 63.309 62.7074 63.556 62.3044 63.556C61.6674 63.556 60.7964 62.594 60.7964 61.866C60.7964 61.476 61.0044 61.203 61.5894 61.203H65.3204V58.837H60.3154V57.914ZM69.7364 58.837V66H68.6834V58.837H67.5264V57.914H68.6574C68.2674 56.133 67.6694 55.275 66.7854 55.275C66.0444 55.275 65.7194 55.717 65.7194 56.432C65.7194 56.939 65.9014 57.446 66.1614 58.005H65.1214C64.8224 57.394 64.6664 56.783 64.6664 56.237C64.6664 55.132 65.3814 54.352 66.6164 54.352C68.3714 54.352 69.1384 55.613 69.6324 57.914H71.0754V58.837H69.7364ZM82.4951 58.837V66H81.4421V61.853C80.9741 62.048 80.4411 62.165 79.6481 62.165C78.9071 62.165 78.1791 62.009 77.5551 61.723C76.4501 62.334 76.0601 62.659 76.0601 63.439C76.0601 64.232 76.6451 64.661 77.6071 64.661C77.7891 64.661 77.9321 64.648 78.0621 64.609C78.0101 64.466 77.9841 64.297 77.9841 64.128C77.9841 63.634 78.3221 63.348 78.8161 63.348C79.4921 63.348 79.9081 63.868 79.9081 64.362C79.9081 64.726 79.6351 65.051 79.2191 65.246C79.4531 65.727 79.7001 66.104 80.0511 66.65L79.1021 67.105C78.8031 66.546 78.5431 66 78.3741 65.519C78.1661 65.545 77.9191 65.571 77.6851 65.571C76.2551 65.571 74.9941 64.83 74.9941 63.452C74.9941 62.49 75.4491 61.957 76.7101 61.255C75.9171 60.735 75.5011 60.189 75.5011 59.409C75.5011 58.486 76.1901 57.784 77.5161 57.784C78.6991 57.784 79.4921 58.343 79.4921 59.435C79.4921 60.189 79.1021 60.696 78.4391 61.138C78.8031 61.229 79.1281 61.268 79.5441 61.268C80.2331 61.268 80.8961 61.112 81.4421 60.774V58.837H80.3761V57.914H83.8341V58.837H82.4951ZM76.5021 59.474C76.5021 60.046 76.9441 60.449 77.5291 60.774C78.1791 60.358 78.4911 59.942 78.4911 59.461C78.4911 58.98 78.2311 58.629 77.4901 58.629C76.8921 58.629 76.5021 58.941 76.5021 59.474ZM81.4524 58.005C80.7374 55.691 80.4774 55.301 79.5934 55.301C79.2294 55.301 78.8264 55.392 78.5144 55.509L78.2284 54.586C78.5924 54.443 79.0864 54.352 79.5284 54.352C81.0494 54.352 81.5174 55.093 82.4144 58.005H81.4524ZM84.9624 65.103L84.4034 64.167L87.8744 62.451C87.1464 61.411 86.7174 61.06 86.0024 61.06C85.5344 61.06 85.0014 61.216 84.3644 61.541L84.0004 60.566C84.5984 60.267 85.2614 60.072 85.9764 60.072C87.0034 60.072 87.6664 60.514 88.6154 61.853V58.837H83.6494V57.914H91.0074V58.837H89.6684V66H88.6154V63.101L84.9624 65.103ZM96.4727 58.837V66H95.4197V58.837H94.2627V57.914H95.3287C95.0947 57.472 94.9517 57.017 94.9517 56.497C94.9517 55.184 95.9657 54.352 97.6557 54.352C100.074 54.352 102.05 55.704 103.376 58.005H102.284C101.205 56.289 99.5927 55.275 97.8247 55.275C96.6807 55.275 96.0047 55.808 96.0047 56.692C96.0047 57.173 96.1737 57.55 96.3947 57.914H97.8117V58.837H96.4727ZM103.009 66.832C102.671 66.195 102.411 65.506 102.242 64.947C102.008 64.999 101.761 65.025 101.436 65.025C99.902 65.025 98.316 64.284 98.316 62.425C98.316 60.852 99.421 60.085 101.514 60.085H102.229V58.837H97.627V57.914H104.66V58.837H103.282V60.995H101.67C100.149 60.995 99.369 61.463 99.369 62.477C99.369 63.504 100.175 64.076 101.423 64.076C101.579 64.076 101.748 64.063 101.93 64.037C101.865 63.842 101.839 63.647 101.839 63.465C101.839 62.958 102.164 62.646 102.723 62.646C103.36 62.646 103.828 63.14 103.828 63.673C103.828 64.102 103.568 64.453 103.113 64.687C103.334 65.233 103.594 65.727 103.997 66.39L103.009 66.832ZM104.533 58.837V57.914H111.098V58.837H104.533ZM107.848 66.182C106.145 65.181 105.118 64.076 105.118 62.594C105.118 61.151 106.054 60.41 107.38 60.41C108.121 60.41 108.693 60.67 109.135 61.073C109.603 60.644 110.214 60.436 110.981 60.436C111.254 60.436 111.54 60.475 111.696 60.527V61.424C111.449 61.359 111.215 61.346 110.981 61.346C110.097 61.346 109.486 61.892 109.213 63.491L108.173 63.179C108.251 62.62 108.394 62.152 108.602 61.762C108.316 61.502 107.952 61.346 107.484 61.346C106.665 61.346 106.171 61.879 106.171 62.698C106.171 63.686 106.86 64.466 108.459 65.376L107.848 66.182ZM110.398 58.837V57.914H119.394V58.837H118.055V66H117.002V61.346C116.95 61.346 116.898 61.346 116.846 61.346C115.962 61.346 115.351 61.892 115.078 63.491L114.038 63.179C114.116 62.62 114.259 62.152 114.467 61.762C114.181 61.502 113.817 61.346 113.349 61.346C112.53 61.346 112.036 61.879 112.036 62.698C112.036 63.686 112.725 64.466 114.324 65.376L113.713 66.182C112.01 65.181 110.983 64.076 110.983 62.594C110.983 61.151 111.919 60.41 113.245 60.41C113.986 60.41 114.558 60.67 115 61.073C115.468 60.644 116.079 60.436 116.846 60.436C116.898 60.436 116.95 60.436 117.002 60.436V58.837H110.398ZM121.419 58.837V66H120.366V58.837H119.209V57.914H120.34C119.95 56.133 119.352 55.275 118.468 55.275C117.727 55.275 117.402 55.717 117.402 56.432C117.402 56.939 117.584 57.446 117.844 58.005H116.804C116.505 57.394 116.349 56.783 116.349 56.237C116.349 55.132 117.064 54.352 118.299 54.352C120.054 54.352 120.821 55.613 121.315 57.914H122.758V58.837H121.419ZM129.745 66.182C128.445 64.908 127.392 63.595 126.924 62.737C126.677 62.295 126.56 61.905 126.56 61.58C126.56 61.125 126.82 60.878 127.262 60.878C127.639 60.878 127.99 61.112 128.328 61.502C128.796 61.177 128.952 60.592 128.952 60.02C128.952 59.539 128.848 59.11 128.731 58.837H126.014V57.914H134.984V58.837H133.645V66H132.592V62.672C132.15 62.776 131.695 62.828 131.214 62.828C130.525 62.828 129.706 62.698 128.978 62.321C128.718 62.516 128.38 62.685 127.99 62.815C128.614 63.66 129.498 64.518 130.538 65.48L129.745 66.182ZM131.201 61.892C131.695 61.892 132.137 61.84 132.592 61.71V58.837H129.797C129.94 59.214 130.005 59.63 130.005 60.15C130.005 60.722 129.875 61.216 129.602 61.632C130.135 61.827 130.616 61.892 131.201 61.892ZM139.7 65.454L138.946 66.156C137.581 64.921 136.619 63.92 135.943 62.958C135.514 62.347 135.345 61.931 135.345 61.541C135.345 61.138 135.592 60.878 136.034 60.878C136.411 60.878 136.762 61.099 137.1 61.489C137.815 61.151 138.127 60.618 138.127 59.916C138.127 59.526 138.036 59.097 137.906 58.837H134.799V57.914H140.311V58.837H138.985C139.115 59.201 139.167 59.578 139.167 60.046C139.167 61.45 138.27 62.204 136.931 62.776C137.646 63.621 138.673 64.583 139.7 65.454ZM150.297 58.837H146.072V61.346C146.436 61.021 146.956 60.8 147.593 60.8C148.828 60.8 149.556 61.593 149.556 62.88C149.556 63.79 149.231 64.609 148.464 65.454L147.554 64.882C148.126 64.297 148.516 63.66 148.516 62.867C148.516 62.113 148.139 61.71 147.476 61.71C146.93 61.71 146.397 62.087 146.072 62.672V66H145.019V63.79C144.551 64.206 143.927 64.466 143.147 64.466C141.821 64.466 140.716 63.712 140.716 62.217C140.716 60.8 141.704 59.968 143.394 59.968C143.836 59.968 144.239 60.02 144.564 60.098L144.473 61.047C144.174 60.969 143.81 60.917 143.42 60.917C142.354 60.917 141.769 61.385 141.769 62.256C141.769 63.114 142.367 63.53 143.147 63.53C143.94 63.53 144.629 63.088 145.019 62.529V58.837H140.118V57.914H150.297V58.837ZM152.307 58.837V66H151.254V58.837H150.097V57.914H153.646V58.837H152.307ZM158.362 65.454L157.608 66.156C156.243 64.921 155.281 63.92 154.605 62.958C154.176 62.347 154.007 61.931 154.007 61.541C154.007 61.138 154.254 60.878 154.696 60.878C155.073 60.878 155.424 61.099 155.762 61.489C156.477 61.151 156.789 60.618 156.789 59.916C156.789 59.526 156.698 59.097 156.568 58.837H153.461V57.914H158.973V58.837H157.647C157.777 59.201 157.829 59.578 157.829 60.046C157.829 61.45 156.932 62.204 155.593 62.776C156.308 63.621 157.335 64.583 158.362 65.454Z" fill="#FF9300"/>
</svg>
