<svg width="50" height="75" viewBox="0 0 50 75" fill="none" xmlns="http://www.w3.org/2000/svg">
<path fill-rule="evenodd" clip-rule="evenodd" d="M24.2625 20.8711C25.2146 20.8711 26.1277 21.2556 26.801 21.9401C27.4742 22.6246 27.8524 23.5529 27.8524 24.5209C27.8524 25.2428 27.6419 25.9485 27.2474 26.5487C26.853 27.1489 26.2923 27.6167 25.6363 27.893C24.9803 28.1692 24.2585 28.2415 23.5621 28.1007C22.8658 27.9598 22.2261 27.6122 21.724 27.1018C21.222 26.5913 20.8801 25.941 20.7416 25.233C20.603 24.525 20.6741 23.7911 20.9458 23.1242C21.2176 22.4573 21.6777 21.8873 22.268 21.4862C22.8584 21.0852 23.5525 20.8711 24.2625 20.8711Z" fill="#0471B5"/>
<path fill-rule="evenodd" clip-rule="evenodd" d="M7.31947 24.7921C11.0099 23.0853 13.099 28.9721 9.53843 30.3398C7.83559 30.9943 6.11505 30.2114 5.50862 28.7023C4.58976 26.4154 6.01014 25.3976 7.31947 24.7921ZM9.91849 13.104C12.9553 11.242 14.7807 16.3229 12.2305 17.4806C9.28057 18.8191 6.6554 15.1051 9.91849 13.104ZM24.7726 49.1451C36.5381 49.188 44.6673 41.5416 47.7401 33.3951C49.0802 29.842 46.7644 27.2293 44.0578 29.0591C43.1193 29.6933 42.9025 30.979 42.3868 32.2711C38.1475 42.8916 24.7595 47.6962 14.0048 41.0243C12.5833 40.1429 8.97658 37.6873 11.6894 35.4023C12.9599 34.3324 14.1996 34.773 15.2461 35.5655C23.0279 41.4573 33.0294 39.4374 37.3098 31.1161C42.5555 20.9183 33.8806 18.7333 33.5443 24.4373C32.9199 35.0336 21.7512 35.8338 17.3948 29.8619C13.7792 24.9059 16.3176 19.0521 20.367 16.8038C27.771 12.6928 31.9042 21.6437 34.2649 16.6739C35.472 14.1333 31.6717 12.3203 30.0783 11.68C26.1596 10.1043 22.1355 10.1464 18.2218 12.082C13.7662 14.2862 12.9545 10.2265 14.1632 8.67836C14.6931 7.99973 16.2203 7.35594 17.0404 7.01296C26.0389 3.24991 30.556 7.14018 32.8273 6.83785C35.5527 6.47458 36.2775 2.86094 33.0909 1.53584C24.4652 -2.05097 13.6585 0.983263 7.40595 7.12984C-7.84979 22.1258 1.69632 49.0612 24.7726 49.1451Z" fill="#0571B9"/>
<path fill-rule="evenodd" clip-rule="evenodd" d="M44.7404 11.2654C45.3591 11.2654 45.9718 11.3869 46.5434 11.623C47.1151 11.8591 47.6345 12.2051 48.072 12.6414C48.5095 13.0777 48.8566 13.5956 49.0933 14.1656C49.3301 14.7356 49.452 15.3465 49.452 15.9634C49.452 16.8926 49.1757 17.801 48.658 18.5736C48.1402 19.3461 47.4044 19.9483 46.5435 20.3039C45.6826 20.6595 44.7352 20.7525 43.8213 20.5713C42.9073 20.39 42.0678 19.9425 41.4089 19.2855C40.75 18.6285 40.3012 17.7914 40.1194 16.88C39.9376 15.9687 40.0309 15.0241 40.3875 14.1656C40.7441 13.3071 41.348 12.5734 42.1228 12.0572C42.8976 11.5409 43.8086 11.2654 44.7404 11.2654Z" fill="#F4981D"/>
<path fill-rule="evenodd" clip-rule="evenodd" d="M20.7896 39.1159C21.3515 39.1159 21.8905 39.3316 22.2879 39.7157C22.6852 40.0997 22.9085 40.6205 22.9085 41.1636C22.9085 41.5686 22.7842 41.9645 22.5514 42.3012C22.3186 42.6379 21.9876 42.9004 21.6005 43.0554C21.2133 43.2104 20.7872 43.2509 20.3762 43.1719C19.9652 43.0929 19.5876 42.8979 19.2913 42.6115C18.995 42.3251 18.7931 41.9603 18.7114 41.5631C18.6296 41.1658 18.6716 40.7541 18.832 40.38C18.9923 40.0058 19.2639 39.686 19.6124 39.461C19.9608 39.236 20.3705 39.1159 20.7896 39.1159Z" fill="#0A6EB3"/>
<path d="M2.888 68C2.394 68 2.014 67.867 1.748 67.601C1.482 67.335 1.349 66.955 1.349 66.461V56.144C1.349 55.65 1.482 55.27 1.748 55.004C2.014 54.738 2.394 54.605 2.888 54.605H6.593C8.88567 54.605 10.6527 55.1877 11.894 56.353C13.148 57.5057 13.775 59.1523 13.775 61.293C13.775 62.3697 13.6103 63.326 13.281 64.162C12.9643 64.9853 12.502 65.682 11.894 66.252C11.286 66.822 10.5387 67.259 9.652 67.563C8.76533 67.8543 7.74567 68 6.593 68H2.888ZM4.294 65.587H6.422C7.144 65.587 7.771 65.4983 8.303 65.321C8.835 65.1437 9.27833 64.8777 9.633 64.523C9.98767 64.1683 10.2537 63.725 10.431 63.193C10.6083 62.6483 10.697 62.015 10.697 61.293C10.697 59.849 10.336 58.7787 9.614 58.082C8.90467 57.3727 7.84067 57.018 6.422 57.018H4.294V65.587ZM19.9009 68.209C19.3689 68.209 18.8242 68.1647 18.2669 68.076C17.7222 68 17.1965 67.886 16.6899 67.734C16.1959 67.582 15.7525 67.392 15.3599 67.164C15.0812 67.012 14.8849 66.8157 14.7709 66.575C14.6569 66.3217 14.6125 66.0683 14.6379 65.815C14.6759 65.5617 14.7709 65.34 14.9229 65.15C15.0875 64.9473 15.2902 64.8207 15.5309 64.77C15.7842 64.7067 16.0629 64.751 16.3669 64.903C16.8862 65.1943 17.4499 65.4097 18.0579 65.549C18.6785 65.6883 19.2929 65.758 19.9009 65.758C20.8255 65.758 21.4842 65.6187 21.8769 65.34C22.2695 65.0487 22.4659 64.6877 22.4659 64.257C22.4659 63.8897 22.3265 63.5983 22.0479 63.383C21.7692 63.1677 21.2815 62.984 20.5849 62.832L18.4379 62.376C17.2219 62.1227 16.3162 61.692 15.7209 61.084C15.1382 60.4633 14.8469 59.6527 14.8469 58.652C14.8469 58.0187 14.9799 57.4423 15.2459 56.923C15.5119 56.4037 15.8855 55.954 16.3669 55.574C16.8482 55.194 17.4182 54.9027 18.0769 54.7C18.7482 54.4973 19.4829 54.396 20.2809 54.396C20.9902 54.396 21.6869 54.4847 22.3709 54.662C23.0549 54.8267 23.6565 55.0737 24.1759 55.403C24.4292 55.555 24.6002 55.7513 24.6889 55.992C24.7902 56.22 24.8219 56.4543 24.7839 56.695C24.7585 56.923 24.6635 57.1257 24.4989 57.303C24.3469 57.4803 24.1505 57.5943 23.9099 57.645C23.6692 57.6957 23.3779 57.6387 23.0359 57.474C22.6179 57.2587 22.1745 57.1003 21.7059 56.999C21.2372 56.8977 20.7559 56.847 20.2619 56.847C19.7299 56.847 19.2739 56.9167 18.8939 57.056C18.5265 57.1953 18.2415 57.3917 18.0389 57.645C17.8489 57.8983 17.7539 58.1897 17.7539 58.519C17.7539 58.8863 17.8869 59.184 18.1529 59.412C18.4189 59.64 18.8812 59.8237 19.5399 59.963L21.6869 60.419C22.9282 60.685 23.8529 61.1157 24.4609 61.711C25.0689 62.2937 25.3729 63.0663 25.3729 64.029C25.3729 64.6623 25.2462 65.2387 24.9929 65.758C24.7395 66.2647 24.3722 66.7017 23.8909 67.069C23.4095 67.4363 22.8332 67.7213 22.1619 67.924C21.4905 68.114 20.7369 68.209 19.9009 68.209ZM27.8737 68C27.3797 68 26.9997 67.867 26.7337 67.601C26.4677 67.335 26.3347 66.955 26.3347 66.461V56.144C26.3347 55.65 26.4677 55.27 26.7337 55.004C26.9997 54.738 27.3797 54.605 27.8737 54.605H34.5047C34.8847 54.605 35.1697 54.7063 35.3597 54.909C35.5624 55.099 35.6637 55.3777 35.6637 55.745C35.6637 56.125 35.5624 56.4163 35.3597 56.619C35.1697 56.809 34.8847 56.904 34.5047 56.904H29.1467V60.039H34.0677C34.4604 60.039 34.7517 60.1403 34.9417 60.343C35.1444 60.533 35.2457 60.818 35.2457 61.198C35.2457 61.578 35.1444 61.8693 34.9417 62.072C34.7517 62.262 34.4604 62.357 34.0677 62.357H29.1467V65.701H34.5047C34.8847 65.701 35.1697 65.8023 35.3597 66.005C35.5624 66.195 35.6637 66.4737 35.6637 66.841C35.6637 67.221 35.5624 67.5123 35.3597 67.715C35.1697 67.905 34.8847 68 34.5047 68H27.8737ZM42.6267 68.209C41.6767 68.209 40.8343 68.0887 40.0997 67.848C39.3777 67.5947 38.7697 67.2273 38.2757 66.746C37.7817 66.2647 37.408 65.663 37.1546 64.941C36.914 64.2063 36.7936 63.3577 36.7936 62.395V55.935C36.7936 55.441 36.9203 55.0673 37.1737 54.814C37.427 54.5607 37.7943 54.434 38.2757 54.434C38.7443 54.434 39.1053 54.5607 39.3587 54.814C39.612 55.0673 39.7387 55.441 39.7387 55.935V62.414C39.7387 63.5033 39.9857 64.3267 40.4797 64.884C40.9737 65.4287 41.6893 65.701 42.6267 65.701C43.564 65.701 44.2733 65.4287 44.7547 64.884C45.2487 64.3267 45.4957 63.5033 45.4957 62.414V55.935C45.4957 55.441 45.6223 55.0673 45.8757 54.814C46.129 54.5607 46.49 54.434 46.9587 54.434C47.4273 54.434 47.782 54.5607 48.0227 54.814C48.276 55.0673 48.4027 55.441 48.4027 55.935V62.395C48.4027 63.6743 48.181 64.751 47.7377 65.625C47.307 66.4863 46.661 67.1323 45.7997 67.563C44.951 67.9937 43.8933 68.209 42.6267 68.209Z" fill="#F4981D"/>
</svg>
