<svg width="114" height="21" viewBox="0 0 114 21" fill="none" xmlns="http://www.w3.org/2000/svg">
<path d="M6.34248 14.07C5.23182 14.07 4.26582 13.8694 3.44448 13.468C2.62315 13.0574 1.99315 12.4787 1.55448 11.732C1.11582 10.9854 0.896484 10.1174 0.896484 9.12803C0.896484 7.75603 1.15315 6.53803 1.66648 5.47403C2.18915 4.41003 2.89382 3.58869 3.78048 3.01003C4.66715 2.42203 5.65182 2.12803 6.73448 2.12803C7.74248 2.12803 8.50782 2.38936 9.03049 2.91203C9.55315 3.42536 9.81448 4.10669 9.81448 4.95603C9.81448 5.52536 9.71182 5.98269 9.50648 6.32803C9.31049 6.67336 9.02582 6.84603 8.65248 6.84603C8.39115 6.84603 8.18582 6.78536 8.03648 6.66403C7.88715 6.54269 7.81248 6.36536 7.81248 6.13203C7.81248 6.04803 7.83115 5.89403 7.86848 5.67003C7.92448 5.39003 7.95248 5.16603 7.95248 4.99803C7.95248 4.14869 7.49982 3.72403 6.59448 3.72403C5.97848 3.72403 5.39048 3.92469 4.83048 4.32603C4.27048 4.72736 3.81782 5.32003 3.47248 6.10403C3.12715 6.87869 2.95448 7.80269 2.95448 8.87603C2.95448 9.99603 3.26715 10.864 3.89248 11.48C4.51782 12.0867 5.44182 12.39 6.66448 12.39C7.27115 12.39 7.88248 12.3154 8.49849 12.166C9.12382 12.0074 9.81448 11.7694 10.5705 11.452C10.7105 11.396 10.8272 11.368 10.9205 11.368C11.0698 11.368 11.1818 11.424 11.2565 11.536C11.3312 11.648 11.3685 11.7927 11.3685 11.97C11.3685 12.5394 11.0605 12.9594 10.4445 13.23C9.78182 13.5194 9.09115 13.734 8.37249 13.874C7.66315 14.0047 6.98648 14.07 6.34248 14.07Z" fill="#FF9300"/>
<path d="M11.2641 14.07C10.9095 14.07 10.6575 13.8834 10.5081 13.51C10.3681 13.1367 10.2981 12.5394 10.2981 11.718C10.2981 10.5047 10.4708 9.35203 10.8161 8.26003C10.9001 7.98936 11.0355 7.79336 11.2221 7.67203C11.4181 7.54136 11.6888 7.47603 12.0341 7.47603C12.2208 7.47603 12.3515 7.49936 12.4261 7.54603C12.5008 7.59269 12.5381 7.68136 12.5381 7.81203C12.5381 7.96136 12.4681 8.29736 12.3281 8.82003C12.2348 9.19336 12.1601 9.52003 12.1041 9.80003C12.0481 10.08 12.0015 10.4254 11.9641 10.836C12.2721 10.0334 12.6175 9.38003 13.0001 8.87603C13.3828 8.37203 13.7561 8.01269 14.1201 7.79803C14.4935 7.58336 14.8341 7.47603 15.1421 7.47603C15.7488 7.47603 16.0521 7.77936 16.0521 8.38603C16.0521 8.50736 16.0101 8.80136 15.9261 9.26803C15.8515 9.64136 15.8141 9.87469 15.8141 9.96803C15.8141 10.2947 15.9308 10.458 16.1641 10.458C16.4255 10.458 16.7615 10.2527 17.1721 9.84203C17.2935 9.72069 17.4195 9.66003 17.5501 9.66003C17.6715 9.66003 17.7648 9.71603 17.8301 9.82803C17.9048 9.93069 17.9421 10.0707 17.9421 10.248C17.9421 10.5934 17.8488 10.864 17.6621 11.06C17.4008 11.3307 17.0928 11.564 16.7381 11.76C16.3928 11.9467 16.0241 12.04 15.6321 12.04C15.1375 12.04 14.7595 11.914 14.4981 11.662C14.2461 11.41 14.1201 11.0694 14.1201 10.64C14.1201 10.5 14.1341 10.36 14.1621 10.22C14.1808 10.0334 14.1901 9.90736 14.1901 9.84203C14.1901 9.69269 14.1388 9.61803 14.0361 9.61803C13.8961 9.61803 13.7095 9.77669 13.4761 10.094C13.2521 10.402 13.0281 10.8127 12.8041 11.326C12.5801 11.8394 12.3981 12.3807 12.2581 12.95C12.1555 13.3887 12.0341 13.6874 11.8941 13.846C11.7635 13.9954 11.5535 14.07 11.2641 14.07Z" fill="#FF9300"/>
<path d="M18.3632 14.07C17.7846 14.07 17.3226 13.86 16.9772 13.44C16.6319 13.02 16.4592 12.4694 16.4592 11.788C16.4592 11.0414 16.6319 10.3367 16.9772 9.67403C17.3226 9.00203 17.7799 8.46536 18.3492 8.06403C18.9279 7.65336 19.5392 7.44803 20.1832 7.44803C20.3886 7.44803 20.5239 7.49003 20.5892 7.57403C20.6639 7.64869 20.7246 7.78869 20.7712 7.99403C20.9672 7.95669 21.1726 7.93803 21.3872 7.93803C21.8446 7.93803 22.0732 8.10136 22.0732 8.42803C22.0732 8.62403 22.0032 9.09069 21.8632 9.82803C21.6486 10.9014 21.5412 11.648 21.5412 12.068C21.5412 12.208 21.5739 12.32 21.6392 12.404C21.7139 12.488 21.8072 12.53 21.9192 12.53C22.0966 12.53 22.3112 12.418 22.5632 12.194C22.8152 11.9607 23.1559 11.5874 23.5852 11.074C23.6972 10.9434 23.8232 10.878 23.9632 10.878C24.0846 10.878 24.1779 10.934 24.2432 11.046C24.3179 11.158 24.3552 11.312 24.3552 11.508C24.3552 11.8814 24.2666 12.1707 24.0892 12.376C23.7066 12.852 23.3006 13.2534 22.8712 13.58C22.4419 13.9067 22.0266 14.07 21.6252 14.07C21.3172 14.07 21.0326 13.9674 20.7712 13.762C20.5192 13.5474 20.3279 13.258 20.1972 12.894C19.7119 13.678 19.1006 14.07 18.3632 14.07ZM18.8672 12.656C19.0726 12.656 19.2686 12.5347 19.4552 12.292C19.6419 12.0494 19.7772 11.7274 19.8612 11.326L20.3792 8.75003C19.9872 8.75936 19.6232 8.90869 19.2872 9.19803C18.9606 9.47803 18.6992 9.85136 18.5032 10.318C18.3072 10.7847 18.2092 11.2794 18.2092 11.802C18.2092 12.0914 18.2652 12.306 18.3772 12.446C18.4986 12.586 18.6619 12.656 18.8672 12.656Z" fill="#FF9300"/>
<path d="M28.6667 10.08C28.928 10.08 29.0587 10.276 29.0587 10.668C29.0587 11.4054 28.48 11.774 27.3227 11.774C27.0987 11.774 26.7767 11.732 26.3567 11.648C26.478 12.2267 26.576 12.8707 26.6507 13.58C26.7347 14.28 26.7767 14.8587 26.7767 15.316C26.7767 16.324 26.6134 17.094 26.2867 17.626C25.96 18.158 25.5307 18.424 24.9987 18.424C24.3267 18.424 23.846 17.948 23.5567 16.996C23.2767 16.044 23.1367 14.6067 23.1367 12.684C23.1367 10.892 23.328 9.07669 23.7107 7.23803C24.1027 5.39003 24.6347 3.86403 25.3067 2.66003C25.988 1.44669 26.7347 0.840027 27.5467 0.840027C27.9854 0.840027 28.326 1.03603 28.5687 1.42803C28.8207 1.82003 28.9467 2.34736 28.9467 3.01003C28.9467 5.20336 27.6354 7.59269 25.0127 10.178C24.9194 11.0927 24.8727 11.8954 24.8727 12.586C24.8727 13.5474 24.9054 14.532 24.9707 15.54C25.036 16.5574 25.1434 17.066 25.2927 17.066C25.5727 17.066 25.7127 16.5807 25.7127 15.61C25.7127 14.882 25.6614 14.1774 25.5587 13.496C25.4654 12.8147 25.3347 12.096 25.1667 11.34C25.1574 11.2187 25.1947 11.0647 25.2787 10.878C25.372 10.6914 25.484 10.528 25.6147 10.388C25.7454 10.248 25.862 10.178 25.9647 10.178C26.1514 10.178 26.3754 10.1874 26.6367 10.206C26.7207 10.2154 26.8187 10.22 26.9307 10.22C27.304 10.22 27.7194 10.1874 28.1767 10.122C28.2514 10.1127 28.3307 10.1034 28.4147 10.094C28.4987 10.0847 28.5827 10.08 28.6667 10.08ZM27.2527 2.22603C27.0847 2.22603 26.8747 2.51069 26.6227 3.08003C26.38 3.64936 26.1374 4.40536 25.8947 5.34803C25.652 6.28136 25.442 7.27069 25.2647 8.31603C26.0114 7.46669 26.5854 6.58469 26.9867 5.67003C27.388 4.74603 27.5934 3.88269 27.6027 3.08003C27.6027 2.51069 27.486 2.22603 27.2527 2.22603Z" fill="#FF9300"/>
<path d="M34.3833 10.878C34.5046 10.878 34.5979 10.934 34.6633 11.046C34.7379 11.158 34.7753 11.312 34.7753 11.508C34.7753 11.8814 34.6866 12.1707 34.5093 12.376C34.1079 12.8707 33.6693 13.2767 33.1933 13.594C32.7173 13.9114 32.1713 14.07 31.5553 14.07C29.6513 14.07 28.6993 12.7307 28.6993 10.052C28.6993 9.64136 28.7133 9.22603 28.7413 8.80603H28.1953C27.9153 8.80603 27.7239 8.75469 27.6213 8.65203C27.5279 8.54936 27.4813 8.38603 27.4813 8.16203C27.4813 7.63936 27.6913 7.37803 28.1113 7.37803H28.9093C29.0679 6.35136 29.3106 5.41336 29.6373 4.56403C29.9639 3.71469 30.3559 3.03803 30.8133 2.53403C31.2799 2.03003 31.7793 1.77803 32.3113 1.77803C32.7033 1.77803 33.0113 1.95069 33.2353 2.29603C33.4593 2.64136 33.5713 3.07536 33.5713 3.59803C33.5713 5.04469 32.9646 6.30469 31.7513 7.37803H33.3193C33.4686 7.37803 33.5759 7.41069 33.6413 7.47603C33.7066 7.54136 33.7393 7.66269 33.7393 7.84003C33.7393 8.48403 33.2119 8.80603 32.1573 8.80603H30.4493C30.4306 9.27269 30.4213 9.63669 30.4213 9.89803C30.4213 10.8687 30.5333 11.55 30.7573 11.942C30.9906 12.334 31.3546 12.53 31.8493 12.53C32.2506 12.53 32.6053 12.4087 32.9133 12.166C33.2213 11.9234 33.5853 11.5594 34.0053 11.074C34.1173 10.9434 34.2433 10.878 34.3833 10.878ZM31.9333 3.12203C31.7933 3.12203 31.6346 3.29936 31.4573 3.65403C31.2893 3.99936 31.1259 4.48469 30.9673 5.11003C30.8179 5.72603 30.6919 6.41203 30.5893 7.16803C31.1399 6.69203 31.5506 6.16003 31.8213 5.57203C32.1013 4.97469 32.2413 4.43336 32.2413 3.94803C32.2413 3.39736 32.1386 3.12203 31.9333 3.12203Z" fill="#FF9300"/>
<path d="M35.4694 6.55203C35.0774 6.55203 34.7834 6.46336 34.5874 6.28603C34.3914 6.09936 34.2934 5.84269 34.2934 5.51603C34.2934 5.18936 34.4194 4.91869 34.6714 4.70403C34.9327 4.48003 35.2547 4.36803 35.6374 4.36803C35.9827 4.36803 36.2627 4.45203 36.4774 4.62003C36.692 4.78803 36.7994 5.02603 36.7994 5.33403C36.7994 5.70736 36.678 6.00603 36.4354 6.23003C36.1927 6.44469 35.8707 6.55203 35.4694 6.55203ZM35.3574 14.07C34.7507 14.07 34.3074 13.8554 34.0274 13.426C33.7567 12.9967 33.6214 12.4274 33.6214 11.718C33.6214 11.298 33.6727 10.7614 33.7754 10.108C33.8874 9.44536 34.0274 8.82936 34.1954 8.26003C34.2794 7.96136 34.3914 7.75603 34.5314 7.64403C34.6714 7.53203 34.8954 7.47603 35.2034 7.47603C35.6794 7.47603 35.9174 7.63469 35.9174 7.95203C35.9174 8.18536 35.8287 8.72669 35.6514 9.57603C35.4274 10.6027 35.3154 11.298 35.3154 11.662C35.3154 11.942 35.3527 12.1567 35.4274 12.306C35.502 12.4554 35.628 12.53 35.8054 12.53C35.9734 12.53 36.1834 12.4134 36.4354 12.18C36.6874 11.9467 37.0234 11.578 37.4434 11.074C37.5554 10.9434 37.6814 10.878 37.8214 10.878C37.9427 10.878 38.036 10.934 38.1014 11.046C38.176 11.158 38.2134 11.312 38.2134 11.508C38.2134 11.8814 38.1247 12.1707 37.9474 12.376C37.0234 13.5054 36.16 14.07 35.3574 14.07Z" fill="#FF9300"/>
<path d="M38.0747 14.07C37.72 14.07 37.468 13.8834 37.3187 13.51C37.1787 13.1367 37.1087 12.5394 37.1087 11.718C37.1087 10.5047 37.2814 9.35203 37.6267 8.26003C37.7107 7.98936 37.846 7.79336 38.0327 7.67203C38.2287 7.54136 38.4994 7.47603 38.8447 7.47603C39.0314 7.47603 39.162 7.49936 39.2367 7.54603C39.3114 7.59269 39.3487 7.68136 39.3487 7.81203C39.3487 7.96136 39.2787 8.29736 39.1387 8.82003C39.0454 9.19336 38.9707 9.52003 38.9147 9.80003C38.8587 10.08 38.812 10.4254 38.7747 10.836C39.0827 10.0334 39.428 9.38003 39.8107 8.87603C40.1934 8.37203 40.5667 8.01269 40.9307 7.79803C41.304 7.58336 41.6447 7.47603 41.9527 7.47603C42.5594 7.47603 42.8627 7.77936 42.8627 8.38603C42.8627 8.75003 42.76 9.40803 42.5547 10.36C42.3774 11.172 42.2887 11.7087 42.2887 11.97C42.2887 12.3434 42.424 12.53 42.6947 12.53C42.8814 12.53 43.1007 12.418 43.3527 12.194C43.614 11.9607 43.9594 11.5874 44.3887 11.074C44.5007 10.9434 44.6267 10.878 44.7667 10.878C44.888 10.878 44.9814 10.934 45.0467 11.046C45.1214 11.158 45.1587 11.312 45.1587 11.508C45.1587 11.8814 45.07 12.1707 44.8927 12.376C44.4914 12.8707 44.0574 13.2767 43.5907 13.594C43.1334 13.9114 42.6107 14.07 42.0227 14.07C41.5467 14.07 41.1874 13.9347 40.9447 13.664C40.702 13.384 40.5807 12.9827 40.5807 12.46C40.5807 12.1987 40.646 11.732 40.7767 11.06C40.898 10.472 40.9587 10.066 40.9587 9.84203C40.9587 9.69269 40.9074 9.61803 40.8047 9.61803C40.6834 9.61803 40.5107 9.77669 40.2867 10.094C40.072 10.402 39.848 10.8127 39.6147 11.326C39.3907 11.8394 39.2087 12.3807 39.0687 12.95C38.966 13.3887 38.8447 13.6874 38.7047 13.846C38.574 13.9954 38.364 14.07 38.0747 14.07Z" fill="#FF9300"/>
<path d="M48.772 7.93803C49.0053 7.93803 49.1687 7.97536 49.262 8.05003C49.3647 8.11536 49.416 8.25069 49.416 8.45603C49.416 8.56803 49.4113 8.65669 49.402 8.72203C49.3647 9.01136 49.248 9.75803 49.052 10.962C48.912 11.774 48.8233 12.3107 48.786 12.572C48.4313 14.98 47.9507 16.8794 47.344 18.27C46.7467 19.67 45.944 20.37 44.936 20.37C44.46 20.37 44.0727 20.2207 43.774 19.922C43.4753 19.6327 43.326 19.25 43.326 18.774C43.326 18.1114 43.5873 17.3974 44.11 16.632C44.6327 15.876 45.6127 14.9427 47.05 13.832L47.134 13.286C46.9753 13.538 46.7653 13.734 46.504 13.874C46.252 14.0047 46 14.07 45.748 14.07C45.1693 14.07 44.7073 13.86 44.362 13.44C44.0167 13.02 43.844 12.4694 43.844 11.788C43.844 11.0414 44.0167 10.3367 44.362 9.67403C44.7073 9.00203 45.1647 8.46536 45.734 8.06403C46.3127 7.65336 46.924 7.44803 47.568 7.44803C47.7733 7.44803 47.9087 7.49003 47.974 7.57403C48.0487 7.64869 48.1093 7.78869 48.156 7.99403C48.3333 7.95669 48.5387 7.93803 48.772 7.93803ZM46.252 12.656C46.4667 12.656 46.672 12.5254 46.868 12.264C47.064 12.0027 47.204 11.6294 47.288 11.144L47.736 8.75003C47.3533 8.75936 46.9987 8.90869 46.672 9.19803C46.3453 9.47803 46.084 9.85136 45.888 10.318C45.692 10.7847 45.594 11.2794 45.594 11.802C45.594 12.0914 45.65 12.306 45.762 12.446C45.8833 12.586 46.0467 12.656 46.252 12.656ZM45.09 19.012C45.3233 19.012 45.5847 18.732 45.874 18.172C46.1727 17.612 46.4573 16.7207 46.728 15.498C46.0093 16.114 45.4913 16.6694 45.174 17.164C44.8567 17.6587 44.698 18.0927 44.698 18.466C44.698 18.6247 44.726 18.7554 44.782 18.858C44.8473 18.9607 44.95 19.012 45.09 19.012Z" fill="#FF9300"/>
<path d="M63.9181 11.452C64.0581 11.396 64.1748 11.368 64.2681 11.368C64.4175 11.368 64.5295 11.424 64.6041 11.536C64.6788 11.648 64.7161 11.7927 64.7161 11.97C64.7161 12.25 64.6461 12.488 64.5061 12.684C64.3755 12.88 64.1468 13.0574 63.8201 13.216C63.2695 13.4774 62.5555 13.6874 61.6781 13.846C60.8008 13.9954 59.9375 14.07 59.0881 14.07C57.9121 14.07 56.9275 13.9394 56.1341 13.678C55.3408 13.4074 54.7481 13.0387 54.3561 12.572C53.9735 12.1054 53.7821 11.578 53.7821 10.99C53.7821 10.1874 54.0388 9.50603 54.5521 8.94603C55.0748 8.37669 55.8401 7.96603 56.8481 7.71403C56.2975 7.55536 55.8728 7.27536 55.5741 6.87403C55.2848 6.47269 55.1401 6.02469 55.1401 5.53003C55.1401 4.85803 55.3501 4.26536 55.7701 3.75203C56.1995 3.22936 56.7735 2.82803 57.4921 2.54803C58.2108 2.26803 58.9995 2.12803 59.8581 2.12803C61.0155 2.12803 61.8835 2.38003 62.4621 2.88403C63.0408 3.37869 63.3301 4.02269 63.3301 4.81603C63.3301 5.36669 63.2275 5.81469 63.0221 6.16003C62.8261 6.49603 62.5415 6.66403 62.1681 6.66403C61.9068 6.66403 61.7015 6.60803 61.5521 6.49603C61.4028 6.37469 61.3281 6.19736 61.3281 5.96403C61.3281 5.80536 61.3515 5.63269 61.3981 5.44603C61.4448 5.13803 61.4681 4.92803 61.4681 4.81603C61.4681 4.48003 61.3421 4.20936 61.0901 4.00403C60.8381 3.78936 60.4181 3.68203 59.8301 3.68203C59.0368 3.68203 58.4021 3.85003 57.9261 4.18603C57.4501 4.52203 57.2121 4.97469 57.2121 5.54403C57.2121 5.98269 57.3895 6.34669 57.7441 6.63603C58.1081 6.91603 58.6961 7.07003 59.5081 7.09803C59.7135 7.10736 59.8581 7.15403 59.9421 7.23803C60.0261 7.32203 60.0681 7.46203 60.0681 7.65803C60.0681 8.27403 59.7881 8.58669 59.2281 8.59603C58.4535 8.61469 57.8095 8.72203 57.2961 8.91803C56.7921 9.11403 56.4235 9.36603 56.1901 9.67403C55.9661 9.97269 55.8541 10.2947 55.8541 10.64C55.8541 11.2187 56.1248 11.6574 56.6661 11.956C57.2075 12.2454 58.0661 12.39 59.2421 12.39C60.0168 12.39 60.8335 12.3014 61.6921 12.124C62.5601 11.9374 63.3021 11.7134 63.9181 11.452Z" fill="#FF9300"/>
<path d="M71.7658 10.878C71.8871 10.878 71.9805 10.934 72.0458 11.046C72.1205 11.158 72.1578 11.312 72.1578 11.508C72.1578 11.8814 72.0691 12.1707 71.8918 12.376C71.4811 12.8614 71.0285 13.2674 70.5338 13.594C70.0485 13.9114 69.4978 14.07 68.8818 14.07C68.4058 14.07 67.9811 13.9814 67.6078 13.804C67.2438 13.6267 66.9545 13.3747 66.7398 13.048C66.2078 13.72 65.5778 14.056 64.8498 14.056C64.3365 14.056 63.9305 13.9067 63.6318 13.608C63.3331 13.3094 63.1838 12.9127 63.1838 12.418C63.1838 11.9514 63.2911 11.5734 63.5058 11.284C63.7205 10.9947 64.0238 10.85 64.4158 10.85C64.7518 10.85 64.9198 10.976 64.9198 11.228C64.9198 11.2934 64.9105 11.41 64.8918 11.578C64.8638 11.914 64.8498 12.1054 64.8498 12.152C64.8498 12.432 64.9711 12.572 65.2138 12.572C65.3911 12.572 65.5591 12.4694 65.7178 12.264C65.8858 12.0494 66.0211 11.76 66.1238 11.396C66.2358 11.032 66.2918 10.6307 66.2918 10.192C66.2918 9.85603 66.2498 9.57603 66.1658 9.35203C66.0818 9.11869 65.9791 9.00203 65.8578 9.00203C65.7551 9.00203 65.6805 9.03003 65.6338 9.08603C65.5871 9.13269 65.5405 9.21669 65.4938 9.33803C65.4378 9.48736 65.3631 9.60869 65.2698 9.70203C65.1765 9.78603 65.0131 9.82803 64.7798 9.82803C64.5745 9.82803 64.4111 9.75803 64.2898 9.61803C64.1685 9.46869 64.1078 9.24469 64.1078 8.94603C64.1078 8.47003 64.2525 8.09669 64.5418 7.82603C64.8311 7.55536 65.2045 7.42003 65.6618 7.42003C66.0538 7.42003 66.4085 7.51803 66.7258 7.71403C67.0431 7.90069 67.2858 8.17603 67.4538 8.54003C67.7338 8.16669 68.0465 7.88669 68.3918 7.70003C68.7465 7.51336 69.0918 7.42003 69.4278 7.42003C69.7918 7.42003 70.0671 7.50403 70.2538 7.67203C70.4498 7.84003 70.5478 8.11069 70.5478 8.48403C70.5478 8.90403 70.4685 9.23536 70.3098 9.47803C70.1511 9.71136 69.9598 9.82803 69.7358 9.82803C69.5305 9.82803 69.3905 9.78603 69.3158 9.70203C69.2411 9.61803 69.1851 9.49669 69.1478 9.33803C69.1291 9.22603 69.1011 9.14203 69.0638 9.08603C69.0265 9.03003 68.9611 9.00203 68.8678 9.00203C68.7558 9.00203 68.6345 9.10936 68.5038 9.32403C68.3825 9.52936 68.2751 9.80469 68.1818 10.15C68.0978 10.4954 68.0558 10.8547 68.0558 11.228C68.0558 11.6667 68.1585 12.0074 68.3638 12.25C68.5785 12.4834 68.8678 12.6 69.2318 12.6C69.5958 12.6 69.9365 12.4787 70.2538 12.236C70.5805 11.984 70.9585 11.5967 71.3878 11.074C71.4998 10.9434 71.6258 10.878 71.7658 10.878Z" fill="#FF9300"/>
<path d="M73.702 14.07C72.7873 14.07 72.0733 13.8134 71.56 13.3C71.056 12.7774 70.804 12.0914 70.804 11.242C70.804 10.486 70.9533 9.82336 71.252 9.25403C71.5506 8.68469 71.938 8.24603 72.414 7.93803C72.89 7.63003 73.3893 7.47603 73.912 7.47603C74.4253 7.47603 74.822 7.63003 75.102 7.93803C75.3913 8.23669 75.5359 8.62403 75.5359 9.10003C75.5359 9.49203 75.4473 9.82336 75.27 10.094C75.102 10.3647 74.878 10.5 74.598 10.5C74.4206 10.5 74.276 10.458 74.164 10.374C74.0613 10.29 74.01 10.1734 74.01 10.024C74.01 9.95869 74.0193 9.88403 74.038 9.80003C74.0566 9.71603 74.0706 9.65536 74.08 9.61803C74.1266 9.47803 74.15 9.34736 74.15 9.22603C74.15 9.10469 74.1173 9.01136 74.052 8.94603C73.996 8.88069 73.9119 8.84803 73.7999 8.84803C73.5853 8.84803 73.3846 8.94603 73.198 9.14203C73.0113 9.32869 72.862 9.58536 72.75 9.91203C72.638 10.2387 72.582 10.598 72.582 10.99C72.582 12.0727 73.0533 12.614 73.996 12.614C74.3786 12.614 74.7893 12.488 75.228 12.236C75.676 11.9747 76.1146 11.5874 76.544 11.074C76.656 10.9434 76.782 10.878 76.922 10.878C77.0433 10.878 77.1366 10.934 77.202 11.046C77.2766 11.158 77.3139 11.312 77.3139 11.508C77.3139 11.8627 77.2253 12.152 77.048 12.376C76.6093 12.9174 76.082 13.3374 75.466 13.636C74.8593 13.9254 74.2713 14.07 73.702 14.07Z" fill="#FF9300"/>
<path d="M82.4262 10.878C82.5476 10.878 82.6409 10.934 82.7063 11.046C82.7809 11.158 82.8183 11.312 82.8183 11.508C82.8183 11.8814 82.7296 12.1707 82.5523 12.376C82.2069 12.796 81.7169 13.1834 81.0823 13.538C80.4569 13.8927 79.7849 14.07 79.0663 14.07C78.0863 14.07 77.3256 13.804 76.7842 13.272C76.2429 12.74 75.9723 12.012 75.9723 11.088C75.9723 10.444 76.1076 9.84669 76.3783 9.29603C76.6489 8.73603 77.0223 8.29269 77.4983 7.96603C77.9836 7.63936 78.5296 7.47603 79.1363 7.47603C79.6776 7.47603 80.1116 7.63936 80.4382 7.96603C80.7649 8.28336 80.9283 8.71736 80.9283 9.26803C80.9283 9.91203 80.6949 10.4674 80.2282 10.934C79.7709 11.3914 78.9916 11.7554 77.8903 12.026C78.1236 12.4554 78.5669 12.67 79.2203 12.67C79.6403 12.67 80.1162 12.5254 80.6482 12.236C81.1896 11.9374 81.6562 11.55 82.0482 11.074C82.1602 10.9434 82.2862 10.878 82.4262 10.878ZM78.8982 8.84803C78.5529 8.84803 78.2589 9.04869 78.0163 9.45003C77.7829 9.85136 77.6663 10.3367 77.6663 10.906V10.934C78.2169 10.8034 78.6509 10.6074 78.9682 10.346C79.2856 10.0847 79.4443 9.78136 79.4443 9.43603C79.4443 9.25869 79.3929 9.11869 79.2903 9.01603C79.1969 8.90403 79.0662 8.84803 78.8982 8.84803Z" fill="#FF9300"/>
<path d="M86.9843 10.878C87.1057 10.878 87.199 10.934 87.2643 11.046C87.339 11.158 87.3763 11.312 87.3763 11.508C87.3763 11.8814 87.2877 12.1707 87.1103 12.376C86.709 12.8707 86.2703 13.2767 85.7943 13.594C85.3277 13.9114 84.7957 14.07 84.1983 14.07C83.377 14.07 82.7657 13.6967 82.3643 12.95C81.9723 12.2034 81.7763 11.2374 81.7763 10.052C81.7763 8.91336 81.921 7.61603 82.2103 6.16003C82.509 4.70403 82.943 3.45336 83.5123 2.40803C84.091 1.36269 84.777 0.840027 85.5703 0.840027C86.0183 0.840027 86.3683 1.05003 86.6203 1.47003C86.8817 1.88069 87.0123 2.47336 87.0123 3.24803C87.0123 4.35869 86.7043 5.64669 86.0883 7.11203C85.4723 8.57736 84.637 10.0287 83.5823 11.466C83.6477 11.8487 83.755 12.124 83.9043 12.292C84.0537 12.4507 84.2497 12.53 84.4923 12.53C84.875 12.53 85.211 12.4227 85.5003 12.208C85.7897 11.984 86.1583 11.606 86.6063 11.074C86.7183 10.9434 86.8443 10.878 86.9843 10.878ZM85.2623 2.22603C85.0477 2.22603 84.805 2.61336 84.5343 3.38803C84.2637 4.16269 84.0257 5.12403 83.8203 6.27203C83.615 7.42003 83.503 8.52136 83.4843 9.57603C84.147 8.48403 84.6743 7.39203 85.0663 6.30003C85.4583 5.19869 85.6543 4.19536 85.6543 3.29003C85.6543 2.58069 85.5237 2.22603 85.2623 2.22603Z" fill="#FF9300"/>
<path d="M91.5508 10.878C91.6721 10.878 91.7654 10.934 91.8307 11.046C91.9054 11.158 91.9427 11.312 91.9427 11.508C91.9427 11.8814 91.8541 12.1707 91.6768 12.376C91.2754 12.8707 90.8367 13.2767 90.3607 13.594C89.8941 13.9114 89.3621 14.07 88.7647 14.07C87.9434 14.07 87.3321 13.6967 86.9307 12.95C86.5387 12.2034 86.3428 11.2374 86.3428 10.052C86.3428 8.91336 86.4874 7.61603 86.7767 6.16003C87.0754 4.70403 87.5094 3.45336 88.0788 2.40803C88.6574 1.36269 89.3434 0.840027 90.1367 0.840027C90.5847 0.840027 90.9348 1.05003 91.1868 1.47003C91.4481 1.88069 91.5788 2.47336 91.5788 3.24803C91.5788 4.35869 91.2707 5.64669 90.6547 7.11203C90.0387 8.57736 89.2034 10.0287 88.1488 11.466C88.2141 11.8487 88.3214 12.124 88.4707 12.292C88.6201 12.4507 88.8161 12.53 89.0587 12.53C89.4414 12.53 89.7774 12.4227 90.0667 12.208C90.3561 11.984 90.7248 11.606 91.1728 11.074C91.2848 10.9434 91.4108 10.878 91.5508 10.878ZM89.8288 2.22603C89.6141 2.22603 89.3714 2.61336 89.1008 3.38803C88.8301 4.16269 88.5921 5.12403 88.3867 6.27203C88.1814 7.42003 88.0694 8.52136 88.0508 9.57603C88.7134 8.48403 89.2408 7.39203 89.6328 6.30003C90.0248 5.19869 90.2207 4.19536 90.2207 3.29003C90.2207 2.58069 90.0901 2.22603 89.8288 2.22603Z" fill="#FF9300"/>
<path d="M97.0552 10.878C97.1765 10.878 97.2698 10.934 97.3352 11.046C97.4098 11.158 97.4472 11.312 97.4472 11.508C97.4472 11.8814 97.3585 12.1707 97.1812 12.376C96.8358 12.796 96.3458 13.1834 95.7112 13.538C95.0858 13.8927 94.4138 14.07 93.6952 14.07C92.7152 14.07 91.9545 13.804 91.4132 13.272C90.8718 12.74 90.6012 12.012 90.6012 11.088C90.6012 10.444 90.7365 9.84669 91.0072 9.29603C91.2778 8.73603 91.6512 8.29269 92.1272 7.96603C92.6125 7.63936 93.1585 7.47603 93.7652 7.47603C94.3065 7.47603 94.7405 7.63936 95.0672 7.96603C95.3938 8.28336 95.5572 8.71736 95.5572 9.26803C95.5572 9.91203 95.3238 10.4674 94.8572 10.934C94.3998 11.3914 93.6205 11.7554 92.5192 12.026C92.7525 12.4554 93.1958 12.67 93.8492 12.67C94.2692 12.67 94.7452 12.5254 95.2772 12.236C95.8185 11.9374 96.2852 11.55 96.6772 11.074C96.7892 10.9434 96.9152 10.878 97.0552 10.878ZM93.5272 8.84803C93.1818 8.84803 92.8878 9.04869 92.6452 9.45003C92.4118 9.85136 92.2952 10.3367 92.2952 10.906V10.934C92.8458 10.8034 93.2798 10.6074 93.5972 10.346C93.9145 10.0847 94.0732 9.78136 94.0732 9.43603C94.0732 9.25869 94.0218 9.11869 93.9192 9.01603C93.8258 8.90403 93.6952 8.84803 93.5272 8.84803Z" fill="#FF9300"/>
<path d="M97.3012 14.07C96.9466 14.07 96.6946 13.8834 96.5452 13.51C96.4052 13.1367 96.3353 12.5394 96.3353 11.718C96.3353 10.5047 96.5079 9.35203 96.8532 8.26003C96.9372 7.98936 97.0726 7.79336 97.2592 7.67203C97.4552 7.54136 97.7259 7.47603 98.0713 7.47603C98.2579 7.47603 98.3886 7.49936 98.4632 7.54603C98.5379 7.59269 98.5752 7.68136 98.5752 7.81203C98.5752 7.96136 98.5052 8.29736 98.3652 8.82003C98.2719 9.19336 98.1973 9.52003 98.1413 9.80003C98.0853 10.08 98.0386 10.4254 98.0013 10.836C98.3093 10.0334 98.6546 9.38003 99.0372 8.87603C99.4199 8.37203 99.7932 8.01269 100.157 7.79803C100.531 7.58336 100.871 7.47603 101.179 7.47603C101.786 7.47603 102.089 7.77936 102.089 8.38603C102.089 8.75003 101.987 9.40803 101.781 10.36C101.604 11.172 101.515 11.7087 101.515 11.97C101.515 12.3434 101.651 12.53 101.921 12.53C102.108 12.53 102.327 12.418 102.579 12.194C102.841 11.9607 103.186 11.5874 103.615 11.074C103.727 10.9434 103.853 10.878 103.993 10.878C104.115 10.878 104.208 10.934 104.273 11.046C104.348 11.158 104.385 11.312 104.385 11.508C104.385 11.8814 104.297 12.1707 104.119 12.376C103.718 12.8707 103.284 13.2767 102.817 13.594C102.36 13.9114 101.837 14.07 101.249 14.07C100.773 14.07 100.414 13.9347 100.171 13.664C99.9286 13.384 99.8073 12.9827 99.8073 12.46C99.8073 12.1987 99.8726 11.732 100.003 11.06C100.125 10.472 100.185 10.066 100.185 9.84203C100.185 9.69269 100.134 9.61803 100.031 9.61803C99.9099 9.61803 99.7373 9.77669 99.5133 10.094C99.2986 10.402 99.0746 10.8127 98.8412 11.326C98.6172 11.8394 98.4352 12.3807 98.2952 12.95C98.1926 13.3887 98.0713 13.6874 97.9313 13.846C97.8006 13.9954 97.5906 14.07 97.3012 14.07Z" fill="#FF9300"/>
<path d="M105.927 14.07C105.012 14.07 104.298 13.8134 103.785 13.3C103.281 12.7774 103.029 12.0914 103.029 11.242C103.029 10.486 103.178 9.82336 103.477 9.25403C103.775 8.68469 104.163 8.24603 104.639 7.93803C105.115 7.63003 105.614 7.47603 106.137 7.47603C106.65 7.47603 107.047 7.63003 107.327 7.93803C107.616 8.23669 107.761 8.62403 107.761 9.10003C107.761 9.49203 107.672 9.82336 107.495 10.094C107.327 10.3647 107.103 10.5 106.823 10.5C106.645 10.5 106.501 10.458 106.389 10.374C106.286 10.29 106.235 10.1734 106.235 10.024C106.235 9.95869 106.244 9.88403 106.263 9.80003C106.281 9.71603 106.295 9.65536 106.305 9.61803C106.351 9.47803 106.375 9.34736 106.375 9.22603C106.375 9.10469 106.342 9.01136 106.277 8.94603C106.221 8.88069 106.137 8.84803 106.025 8.84803C105.81 8.84803 105.609 8.94603 105.423 9.14203C105.236 9.32869 105.087 9.58536 104.975 9.91203C104.863 10.2387 104.807 10.598 104.807 10.99C104.807 12.0727 105.278 12.614 106.221 12.614C106.603 12.614 107.014 12.488 107.453 12.236C107.901 11.9747 108.339 11.5874 108.769 11.074C108.881 10.9434 109.007 10.878 109.147 10.878C109.268 10.878 109.361 10.934 109.427 11.046C109.501 11.158 109.539 11.312 109.539 11.508C109.539 11.8627 109.45 12.152 109.273 12.376C108.834 12.9174 108.307 13.3374 107.691 13.636C107.084 13.9254 106.496 14.07 105.927 14.07Z" fill="#FF9300"/>
<path d="M113.419 11.298C113.54 11.298 113.634 11.354 113.699 11.466C113.774 11.578 113.811 11.732 113.811 11.928C113.811 12.264 113.732 12.5534 113.573 12.796C113.312 13.1974 112.966 13.51 112.537 13.734C112.117 13.958 111.613 14.07 111.025 14.07C110.129 14.07 109.434 13.804 108.939 13.272C108.444 12.7307 108.197 12.0027 108.197 11.088C108.197 10.444 108.332 9.84669 108.603 9.29603C108.874 8.73603 109.247 8.29269 109.723 7.96603C110.208 7.63936 110.754 7.47603 111.361 7.47603C111.902 7.47603 112.336 7.63936 112.663 7.96603C112.99 8.28336 113.153 8.71736 113.153 9.26803C113.153 9.91203 112.92 10.4674 112.453 10.934C111.996 11.3914 111.212 11.7554 110.101 12.026C110.325 12.4554 110.703 12.67 111.235 12.67C111.618 12.67 111.93 12.5814 112.173 12.404C112.425 12.2267 112.714 11.928 113.041 11.508C113.153 11.368 113.279 11.298 113.419 11.298ZM111.123 8.84803C110.778 8.84803 110.484 9.04869 110.241 9.45003C110.008 9.85136 109.891 10.3367 109.891 10.906V10.934C110.442 10.8034 110.876 10.6074 111.193 10.346C111.51 10.0847 111.669 9.78136 111.669 9.43603C111.669 9.25869 111.618 9.11869 111.515 9.01603C111.422 8.90403 111.291 8.84803 111.123 8.84803Z" fill="#FF9300"/>
</svg>
